<svg width="18" height="18" viewBox="0 0 18 18" fill="none" xmlns="http://www.w3.org/2000/svg">
<path fill-rule="evenodd" clip-rule="evenodd" d="M7.33525 10.5232C4.25725 10.5232 1.65625 12.2099 1.65625 14.2064C1.65625 16.4834 4.897 16.7467 7.33525 16.7467C8.74 16.7467 13.0143 16.7467 13.0143 14.1914C13.0143 12.2024 10.4133 10.5232 7.33525 10.5232Z" fill="black"/>
<path fill-rule="evenodd" clip-rule="evenodd" d="M7.311 8.80266H7.335C9.417 8.80266 11.1098 7.10916 11.1098 5.02791C11.1098 2.94666 9.417 1.25391 7.335 1.25391C5.25375 1.25391 3.56025 2.94666 3.56025 5.02641C3.55275 7.10091 5.23425 8.79516 7.311 8.80266Z" fill="black"/>
<path fill-rule="evenodd" clip-rule="evenodd" d="M15.7771 7.05363H14.8043V6.11238C14.8043 5.80188 14.5523 5.54988 14.2418 5.54988C13.9313 5.54988 13.6793 5.80188 13.6793 6.11238V7.05363H12.7096C12.3991 7.05363 12.1471 7.30563 12.1471 7.61613C12.1471 7.92663 12.3991 8.17863 12.7096 8.17863H13.6793V9.11988C13.6793 9.43038 13.9313 9.68238 14.2418 9.68238C14.5523 9.68238 14.8043 9.43038 14.8043 9.11988V8.17863H15.7771C16.0876 8.17863 16.3396 7.92663 16.3396 7.61613C16.3396 7.30563 16.0876 7.05363 15.7771 7.05363Z" fill="black"/>
</svg>
