<svg width="24" height="24" viewBox="0 0 24 24" fill="none" xmlns="http://www.w3.org/2000/svg">
<path fill-rule="evenodd" clip-rule="evenodd" d="M11.6466 20.0469C11.4215 20.2719 11.1164 20.3983 10.7982 20.3983C10.48 20.3983 10.1748 20.2719 9.94978 20.0469L2.74978 12.8469C2.52482 12.6219 2.39844 12.3167 2.39844 11.9985C2.39844 11.6803 2.52482 11.3752 2.74978 11.1501L9.94978 3.95014C10.1761 3.73155 10.4792 3.61059 10.7939 3.61333C11.1085 3.61606 11.4095 3.74226 11.632 3.96475C11.8545 4.18724 11.9807 4.48822 11.9834 4.80285C11.9861 5.11749 11.8652 5.42061 11.6466 5.64694L6.49498 10.7985H20.3982C20.7164 10.7985 21.0217 10.925 21.2467 11.15C21.4718 11.3751 21.5982 11.6803 21.5982 11.9985C21.5982 12.3168 21.4718 12.622 21.2467 12.8471C21.0217 13.0721 20.7164 13.1985 20.3982 13.1985H6.49498L11.6466 18.3501C11.8715 18.5752 11.9979 18.8803 11.9979 19.1985C11.9979 19.5167 11.8715 19.8219 11.6466 20.0469Z" fill="white"/>
</svg>
