<svg width="33" height="33" viewBox="0 0 33 33" fill="none" xmlns="http://www.w3.org/2000/svg">
<path fill-rule="evenodd" clip-rule="evenodd" d="M20.5412 17.1603H20.4779C19.7189 17.1603 19.1029 16.5443 19.1029 15.7853C19.1029 15.0263 19.7189 14.4103 20.4779 14.4103C21.2397 14.4103 21.8845 15.0401 21.8845 15.7853C21.8845 16.5567 21.2947 17.1603 20.5412 17.1603ZM11.66 8.76872C11.8292 7.76497 12.2939 6.83684 13.0323 6.10534C13.9577 5.18822 15.1842 4.68359 16.4904 4.68359H16.5138C18.9393 4.68359 20.9454 6.45459 21.34 8.76872C19.921 8.57759 18.3288 8.47172 16.5 8.47172C14.6727 8.47172 13.079 8.57759 11.66 8.76872ZM12.5235 17.1603H12.4603C11.7027 17.1603 11.0853 16.5443 11.0853 15.7853C11.0853 15.0263 11.7027 14.4103 12.4603 14.4103C13.2234 14.4103 13.8669 15.0401 13.8669 15.7853C13.8669 16.5567 13.277 17.1603 12.5235 17.1603ZM28.4172 11.9807C27.3997 10.6538 25.7552 9.73259 23.4424 9.16334C23.2155 5.52234 20.2112 2.62109 16.5179 2.62109H16.4863C14.6369 2.62109 12.8948 3.33747 11.5803 4.64097C10.3593 5.85097 9.67042 7.43909 9.55904 9.16334C7.24492 9.73122 5.60042 10.6525 4.58292 11.9807C3.19417 13.7943 2.95354 16.2872 3.84867 19.6037C5.91529 27.2707 7.12804 30.381 16.5 30.381C25.8707 30.381 27.0834 27.2707 29.1514 19.6037C30.0452 16.2872 29.8059 13.7943 28.4172 11.9807Z" fill="black"/>
</svg>
