<svg width="24" height="24" viewBox="0 0 24 24" fill="none" xmlns="http://www.w3.org/2000/svg">
<path fill-rule="evenodd" clip-rule="evenodd" d="M16.1708 17.8664C14.7841 18.8522 13.093 19.3149 11.3975 19.1727C9.70207 19.0305 8.11176 18.2924 6.90861 17.0894C5.70545 15.8864 4.96719 14.2961 4.82475 12.6007C4.6823 10.9053 5.14488 9.21414 6.13044 7.82724L16.1708 17.8688V17.8664ZM17.8676 16.1696L7.82724 6.13044C9.21409 5.14405 10.9055 4.6808 12.6014 4.82288C14.2973 4.96496 15.8881 5.70318 17.0915 6.90658C18.2949 8.10997 19.0331 9.70074 19.1752 11.3967C19.3173 13.0926 18.854 14.784 17.8676 16.1708V16.1696ZM21.5984 11.9984C21.5984 14.5445 20.587 16.9863 18.7867 18.7867C16.9863 20.587 14.5445 21.5984 11.9984 21.5984C9.45236 21.5984 7.01056 20.587 5.21021 18.7867C3.40986 16.9863 2.39844 14.5445 2.39844 11.9984C2.39844 9.45236 3.40986 7.01056 5.21021 5.21021C7.01056 3.40986 9.45236 2.39844 11.9984 2.39844C14.5445 2.39844 16.9863 3.40986 18.7867 5.21021C20.587 7.01056 21.5984 9.45236 21.5984 11.9984V11.9984Z" fill="#1E1E1E"/>
</svg>
