<svg width="25" height="24" viewBox="0 0 25 24" fill="none" xmlns="http://www.w3.org/2000/svg">
<path fill-rule="evenodd" clip-rule="evenodd" d="M17.175 10.1259C16.761 10.1259 16.421 9.78988 16.421 9.37588C16.421 8.96188 16.752 8.62588 17.166 8.62588H17.175C17.589 8.62588 17.925 8.96188 17.925 9.37588C17.925 9.78988 17.589 10.1259 17.175 10.1259ZM12.254 16.7699C10.106 16.7699 8.359 15.0219 8.359 12.8739C8.359 10.7269 10.106 8.97988 12.254 8.97988C14.402 8.97988 16.149 10.7269 16.149 12.8739C16.149 15.0219 14.402 16.7699 12.254 16.7699ZM17.873 6.00188C17.704 5.94888 17.458 5.83788 17.251 5.61088C17.165 5.51688 17.049 5.28188 16.937 5.05588C16.635 4.44488 16.222 3.60888 15.391 3.25888C14.323 2.81088 10.223 2.80888 9.12 3.25688C8.3 3.59388 7.882 4.43388 7.577 5.04688C7.462 5.27688 7.344 5.51488 7.256 5.61088C7.05 5.83888 6.804 5.94888 6.651 5.99788C3.354 6.90988 2.75 9.05288 2.75 12.9429C2.75 18.5669 4.122 21.0759 12.254 21.0759C20.385 21.0759 21.757 18.5669 21.757 12.9429C21.757 9.05288 21.154 6.90988 17.873 6.00188Z" fill="white"/>
<path fill-rule="evenodd" clip-rule="evenodd" d="M12.2541 10.4794C10.9331 10.4794 9.85913 11.5534 9.85913 12.8744C9.85913 14.1954 10.9331 15.2694 12.2541 15.2694C13.5751 15.2694 14.6491 14.1954 14.6491 12.8744C14.6491 11.5534 13.5751 10.4794 12.2541 10.4794Z" fill="white"/>
</svg>
