<svg width="24" height="24" viewBox="0 0 24 24" fill="none" xmlns="http://www.w3.org/2000/svg">
<path fill-rule="evenodd" clip-rule="evenodd" d="M15.9475 13.4169C15.3955 13.4169 14.9425 12.9699 14.9425 12.4169C14.9425 11.8639 15.3855 11.4169 15.9385 11.4169H15.9475C16.4995 11.4169 16.9475 11.8639 16.9475 12.4169C16.9475 12.9699 16.4995 13.4169 15.9475 13.4169ZM11.9385 13.4169C11.3855 13.4169 10.9335 12.9699 10.9335 12.4169C10.9335 11.8639 11.3775 11.4169 11.9295 11.4169H11.9385C12.4905 11.4169 12.9385 11.8639 12.9385 12.4169C12.9385 12.9699 12.4905 13.4169 11.9385 13.4169ZM7.92946 13.4169C7.37746 13.4169 6.92546 12.9699 6.92546 12.4169C6.92546 11.8639 7.36746 11.4169 7.92046 11.4169H7.92946C8.48146 11.4169 8.92946 11.8639 8.92946 12.4169C8.92946 12.9699 8.48146 13.4169 7.92946 13.4169ZM19.4235 4.57691C17.4425 2.59591 14.8055 1.50391 11.9995 1.50391C9.19346 1.50391 6.55646 2.59591 4.57546 4.57691C1.47346 7.67991 0.627462 12.4419 2.45246 16.3759C2.48546 16.5379 2.39646 17.1969 2.33246 17.6789C2.09046 19.4849 1.96646 20.8109 2.57946 21.4249C3.19146 22.0379 4.51646 21.9139 6.32246 21.6709C6.80446 21.6069 7.47146 21.5209 7.57546 21.5319C8.98146 22.1829 10.4845 22.4979 11.9765 22.4979C14.7145 22.4979 17.4165 21.4359 19.4235 19.4279C23.5165 15.3329 23.5175 8.67091 19.4235 4.57691Z" fill="black"/>
</svg>
