<svg width="18" height="18" viewBox="0 0 18 18" fill="none" xmlns="http://www.w3.org/2000/svg">
<path d="M3.59688 3.60156C3.11949 3.60156 2.66165 3.7912 2.32408 4.12877C1.98652 4.46634 1.79688 4.92417 1.79688 5.40156V6.30156H16.1969V5.40156C16.1969 4.92417 16.0072 4.46634 15.6697 4.12877C15.3321 3.7912 14.8743 3.60156 14.3969 3.60156H3.59688Z" fill="white"/>
<path fill-rule="evenodd" clip-rule="evenodd" d="M16.1969 8.10156H1.79688V12.6016C1.79688 13.079 1.98652 13.5368 2.32408 13.8744C2.66165 14.2119 3.11949 14.4016 3.59688 14.4016H14.3969C14.8743 14.4016 15.3321 14.2119 15.6697 13.8744C16.0072 13.5368 16.1969 13.079 16.1969 12.6016V8.10156ZM3.59688 11.7016C3.59688 11.4629 3.6917 11.2339 3.86048 11.0652C4.02926 10.8964 4.25818 10.8016 4.49688 10.8016H5.39688C5.63557 10.8016 5.86449 10.8964 6.03327 11.0652C6.20205 11.2339 6.29688 11.4629 6.29688 11.7016C6.29688 11.9403 6.20205 12.1692 6.03327 12.338C5.86449 12.5067 5.63557 12.6016 5.39688 12.6016H4.49688C4.25818 12.6016 4.02926 12.5067 3.86048 12.338C3.6917 12.1692 3.59688 11.9403 3.59688 11.7016ZM8.09688 10.8016C7.85818 10.8016 7.62926 10.8964 7.46048 11.0652C7.2917 11.2339 7.19688 11.4629 7.19688 11.7016C7.19688 11.9403 7.2917 12.1692 7.46048 12.338C7.62926 12.5067 7.85818 12.6016 8.09688 12.6016H8.99688C9.23557 12.6016 9.46449 12.5067 9.63327 12.338C9.80205 12.1692 9.89688 11.9403 9.89688 11.7016C9.89688 11.4629 9.80205 11.2339 9.63327 11.0652C9.46449 10.8964 9.23557 10.8016 8.99688 10.8016H8.09688Z" fill="white"/>
</svg>
