<svg width="24" height="24" viewBox="0 0 24 24" fill="none" xmlns="http://www.w3.org/2000/svg">
<path fill-rule="evenodd" clip-rule="evenodd" d="M8.4 2.39844C7.76348 2.39844 7.15303 2.65129 6.70294 3.10138C6.25286 3.55147 6 4.16192 6 4.79844V19.1984C6 19.835 6.25286 20.4454 6.70294 20.8955C7.15303 21.3456 7.76348 21.5984 8.4 21.5984H15.6C16.2365 21.5984 16.847 21.3456 17.2971 20.8955C17.7471 20.4454 18 19.835 18 19.1984V4.79844C18 4.16192 17.7471 3.55147 17.2971 3.10138C16.847 2.65129 16.2365 2.39844 15.6 2.39844H8.4ZM12 19.1984C12.3183 19.1984 12.6235 19.072 12.8485 18.847C13.0736 18.6219 13.2 18.3167 13.2 17.9984C13.2 17.6802 13.0736 17.375 12.8485 17.1499C12.6235 16.9249 12.3183 16.7984 12 16.7984C11.6817 16.7984 11.3765 16.9249 11.1515 17.1499C10.9264 17.375 10.8 17.6802 10.8 17.9984C10.8 18.3167 10.9264 18.6219 11.1515 18.847C11.3765 19.072 11.6817 19.1984 12 19.1984Z" fill="white"/>
</svg>
