<svg width="24" height="24" viewBox="0 0 24 24" fill="none" xmlns="http://www.w3.org/2000/svg">
<path fill-rule="evenodd" clip-rule="evenodd" d="M19.6078 18.7461H13.2308C12.8168 18.7461 12.4808 19.0821 12.4808 19.4961C12.4808 19.9101 12.8168 20.2461 13.2308 20.2461H19.6078C20.0218 20.2461 20.3578 19.9101 20.3578 19.4961C20.3578 19.0821 20.0218 18.7461 19.6078 18.7461Z" fill="black"/>
<path fill-rule="evenodd" clip-rule="evenodd" d="M9.36593 7.73765C9.46538 7.60539 9.65314 7.57863 9.78558 7.67784L14.9656 11.5582C15.0983 11.6576 15.1251 11.8459 15.0256 11.9785L10.2059 18.3983C9.0459 19.9483 7.2959 20.2583 6.0859 20.2583C5.3359 20.2583 4.7959 20.1383 4.7359 20.1283C4.6059 20.0983 4.4859 20.0083 4.4159 19.8883C4.3459 19.7583 2.6259 16.6983 4.5459 14.1483L9.36593 7.73765Z" fill="black"/>
<path fill-rule="evenodd" clip-rule="evenodd" d="M16.9559 9.40828L16.2859 10.299C16.1864 10.4312 15.9987 10.458 15.8663 10.3588L10.6855 6.47774C10.5531 6.37856 10.5259 6.19093 10.6248 6.05832L11.2959 5.15828C11.9859 4.22828 13.0559 3.73828 14.1359 3.73828C14.8759 3.73828 15.6159 3.96828 16.2559 4.44828C17.0059 5.01828 17.4959 5.84828 17.6359 6.77828C17.7659 7.71828 17.5259 8.64828 16.9559 9.40828Z" fill="black"/>
</svg>
