<svg width="25" height="24" viewBox="0 0 25 24" fill="none" xmlns="http://www.w3.org/2000/svg">
<path fill-rule="evenodd" clip-rule="evenodd" d="M17.9039 10.6966H17.8789C17.4649 10.6816 17.1399 10.3356 17.1539 9.92157C17.1859 8.97057 16.7209 8.35357 15.9099 8.27057C15.4979 8.22857 15.1979 7.86057 15.2399 7.44857C15.2829 7.03757 15.6529 6.73457 16.0629 6.77857C17.6709 6.94257 18.7119 8.22557 18.6529 9.97157C18.6389 10.3776 18.3059 10.6966 17.9039 10.6966ZM17.8219 3.28257C16.1019 2.73257 13.7209 2.96057 12.2349 4.64657C10.6739 2.97257 8.37386 2.72957 6.66586 3.28357C2.75086 4.54357 1.52986 9.07957 2.64386 12.5586V12.5596C4.40186 18.0306 10.2469 20.9816 12.2489 20.9816C14.0359 20.9816 20.1129 18.0856 21.8509 12.5586C22.9649 9.08057 21.7409 4.54457 17.8219 3.28257Z" fill="white"/>
</svg>
