<svg width="32" height="32" viewBox="0 0 32 32" fill="none" xmlns="http://www.w3.org/2000/svg">
<path fill-rule="evenodd" clip-rule="evenodd" d="M19.88 22.5133H12.1267C11.5747 22.5133 11.1267 22.0653 11.1267 21.5133C11.1267 20.9613 11.5747 20.5133 12.1267 20.5133H19.88C20.432 20.5133 20.88 20.9613 20.88 21.5133C20.88 22.0653 20.432 22.5133 19.88 22.5133ZM25.668 8.21067C25.184 7.784 24.6334 7.30133 23.9774 6.69467C23.68 6.45467 23.3547 6.18 23.0094 5.88933C21.0627 4.248 18.396 2 15.9654 2C13.5627 2 11.068 4.12267 9.06402 5.828C8.69335 6.14267 8.34669 6.43867 7.99335 6.72533C7.37202 7.30133 6.82135 7.78533 6.33602 8.21333C3.15335 11.0147 2.55469 11.7493 2.55469 18.284C2.55469 30 5.94269 30 16.0027 30C26.0614 30 29.4507 30 29.4507 18.284C29.4507 11.748 28.852 11.0133 25.668 8.21067Z" fill="#D82B48"/>
</svg>
