<svg width="24" height="24" viewBox="0 0 24 24" fill="none" xmlns="http://www.w3.org/2000/svg">
<path fill-rule="evenodd" clip-rule="evenodd" d="M11.9984 2.39844C11.6802 2.39844 11.375 2.52487 11.1499 2.74991C10.9249 2.97495 10.7984 3.28018 10.7984 3.59844V4.79844C10.7984 5.1167 10.9249 5.42192 11.1499 5.64697C11.375 5.87201 11.6802 5.99844 11.9984 5.99844C12.3167 5.99844 12.6219 5.87201 12.847 5.64697C13.072 5.42192 13.1984 5.1167 13.1984 4.79844V3.59844C13.1984 3.28018 13.072 2.97495 12.847 2.74991C12.6219 2.52487 12.3167 2.39844 11.9984 2.39844ZM4.79844 4.79844H8.39844C8.39844 5.75322 8.77772 6.66889 9.45285 7.34402C10.128 8.01915 11.0437 8.39844 11.9984 8.39844C12.9532 8.39844 13.8689 8.01915 14.544 7.34402C15.2192 6.66889 15.5984 5.75322 15.5984 4.79844H19.1984C19.835 4.79844 20.4454 5.05129 20.8955 5.50138C21.3456 5.95147 21.5984 6.56192 21.5984 7.19844V17.9984C21.5984 18.635 21.3456 19.2454 20.8955 19.6955C20.4454 20.1456 19.835 20.3984 19.1984 20.3984H4.79844C4.16192 20.3984 3.55147 20.1456 3.10138 19.6955C2.65129 19.2454 2.39844 18.635 2.39844 17.9984V7.19844C2.39844 6.56192 2.65129 5.95147 3.10138 5.50138C3.55147 5.05129 4.16192 4.79844 4.79844 4.79844ZM7.79844 13.1984C8.27583 13.1984 8.73366 13.0088 9.07123 12.6712C9.4088 12.3337 9.59844 11.8758 9.59844 11.3984C9.59844 10.921 9.4088 10.4632 9.07123 10.1256C8.73366 9.78808 8.27583 9.59844 7.79844 9.59844C7.32105 9.59844 6.86321 9.78808 6.52565 10.1256C6.18808 10.4632 5.99844 10.921 5.99844 11.3984C5.99844 11.8758 6.18808 12.3337 6.52565 12.6712C6.86321 13.0088 7.32105 13.1984 7.79844 13.1984ZM10.7384 17.9984C10.8269 17.5627 10.8174 17.1128 10.7107 16.6812C10.604 16.2496 10.4026 15.8471 10.1213 15.5029C9.83989 15.1586 9.48553 14.8812 9.0838 14.6908C8.68208 14.5003 8.24304 14.4014 7.79844 14.4014C7.35384 14.4014 6.9148 14.5003 6.51307 14.6908C6.11135 14.8812 5.75698 15.1586 5.47562 15.5029C5.19425 15.8471 4.99292 16.2496 4.88618 16.6812C4.77944 17.1128 4.76996 17.5627 4.85844 17.9984H10.7384ZM14.3984 10.7984C14.0802 10.7984 13.775 10.9249 13.5499 11.1499C13.3249 11.375 13.1984 11.6802 13.1984 11.9984C13.1984 12.3167 13.3249 12.6219 13.5499 12.847C13.775 13.072 14.0802 13.1984 14.3984 13.1984H17.9984C18.3167 13.1984 18.6219 13.072 18.847 12.847C19.072 12.6219 19.1984 12.3167 19.1984 11.9984C19.1984 11.6802 19.072 11.375 18.847 11.1499C18.6219 10.9249 18.3167 10.7984 17.9984 10.7984H14.3984ZM13.1984 15.5984C13.1984 15.2802 13.3249 14.975 13.5499 14.7499C13.775 14.5249 14.0802 14.3984 14.3984 14.3984H16.7984C17.1167 14.3984 17.4219 14.5249 17.647 14.7499C17.872 14.975 17.9984 15.2802 17.9984 15.5984C17.9984 15.9167 17.872 16.2219 17.647 16.447C17.4219 16.672 17.1167 16.7984 16.7984 16.7984H14.3984C14.0802 16.7984 13.775 16.672 13.5499 16.447C13.3249 16.2219 13.1984 15.9167 13.1984 15.5984Z" fill="white"/>
</svg>
