<svg width="32" height="32" viewBox="0 0 32 32" fill="none" xmlns="http://www.w3.org/2000/svg">
<path fill-rule="evenodd" clip-rule="evenodd" d="M11.784 8.69733C13.4453 8.69733 14.7987 10.0507 14.7987 11.712C14.7987 13.3733 13.4453 14.7253 11.784 14.7253C10.1227 14.7253 8.76933 13.3733 8.76933 11.712C8.76933 10.0507 10.1227 8.69733 11.784 8.69733ZM8.63467 19.5013C10.2147 18.76 11.492 19.2187 12.728 19.664C13.66 20 14.6253 20.3467 15.96 20.3467C16.9973 20.3467 17.6093 19.4307 18.4933 17.9187C19.3733 16.416 20.468 14.5453 22.6787 14.5453C25.7507 14.5453 27.6547 16.4827 28.9453 17.9107C28.9787 17.3 29 16.668 29 16C29 6.40133 25.5973 3 16 3C6.40267 3 3 6.40133 3 16C3 19.58 3.47467 22.2973 4.568 24.2987C5.256 22.9427 6.752 20.3853 8.63467 19.5013Z" fill="black"/>
<path fill-rule="evenodd" clip-rule="evenodd" d="M28.3087 20.1752C28.1127 19.9738 27.9047 19.7432 27.682 19.4938C26.5033 18.1805 25.0353 16.5445 22.678 16.5445C21.686 16.5445 21.0873 17.4458 20.2207 18.9285C19.3287 20.4525 18.2207 22.3472 15.9593 22.3472C14.2753 22.3472 13.042 21.9032 12.05 21.5445C10.882 21.1232 10.2793 20.9365 9.486 21.3112C7.97667 22.0205 6.462 24.8818 6.006 25.9245C5.97933 25.9885 5.938 26.0405 5.89933 26.0965C7.94867 28.1485 11.1993 28.9992 16.0007 28.9992C23.946 28.9992 27.6367 26.6552 28.6753 20.4072C28.5407 20.3565 28.4153 20.2845 28.3087 20.1752Z" fill="black"/>
</svg>
