<svg width="24" height="24" viewBox="0 0 24 24" fill="none" xmlns="http://www.w3.org/2000/svg">
<path fill-rule="evenodd" clip-rule="evenodd" d="M21.5984 9.59931C21.5988 10.7239 21.3357 11.833 20.8302 12.8376C20.3247 13.8422 19.5909 14.7144 18.6877 15.3844C17.7844 16.0543 16.7367 16.5034 15.6287 16.6955C14.5206 16.8877 13.3829 16.8176 12.3068 16.4909L11.9984 16.7993L10.7984 17.9993L9.59844 19.1993H7.19844V21.5993H2.39844V16.7993L7.50684 11.6909C7.20738 10.7009 7.12472 9.65804 7.26449 8.63325C7.40426 7.60845 7.76319 6.62579 8.31683 5.75216C8.87047 4.87854 9.60583 4.13444 10.4729 3.57053C11.3399 3.00662 12.3183 2.63613 13.3413 2.48428C14.3644 2.33242 15.4082 2.40277 16.4016 2.69053C17.3951 2.97829 18.3149 3.47671 19.0984 4.15187C19.8819 4.82702 20.5108 5.66306 20.9422 6.60308C21.3736 7.54309 21.5974 8.56502 21.5984 9.59931ZM14.3984 4.79931C14.0802 4.79931 13.775 4.92574 13.5499 5.15078C13.3249 5.37583 13.1984 5.68105 13.1984 5.99931C13.1984 6.31757 13.3249 6.62279 13.5499 6.84784C13.775 7.07288 14.0802 7.19931 14.3984 7.19931C15.035 7.19931 15.6454 7.45217 16.0955 7.90225C16.5456 8.35234 16.7984 8.96279 16.7984 9.59931C16.7984 9.91757 16.9249 10.2228 17.1499 10.4478C17.375 10.6729 17.6802 10.7993 17.9984 10.7993C18.3167 10.7993 18.6219 10.6729 18.847 10.4478C19.072 10.2228 19.1984 9.91757 19.1984 9.59931C19.1984 8.32627 18.6927 7.10537 17.7926 6.2052C16.8924 5.30502 15.6715 4.79931 14.3984 4.79931Z" fill="#D82B48"/>
</svg>
