<svg width="17" height="17" viewBox="0 0 17 17" fill="none" xmlns="http://www.w3.org/2000/svg">
<path fill-rule="evenodd" clip-rule="evenodd" d="M4.2898 3.44202C5.4057 2.32612 6.91919 1.69922 8.4973 1.69922C10.0754 1.69922 11.5889 2.32612 12.7048 3.44202C13.8207 4.55792 14.4476 6.0714 14.4476 7.64952C14.4476 9.22764 13.8207 10.7411 12.7048 11.857L8.4973 16.0645L4.2898 11.857C3.73723 11.3045 3.2989 10.6486 2.99985 9.92663C2.7008 9.2047 2.54688 8.43094 2.54688 7.64952C2.54688 6.86811 2.7008 6.09434 2.99985 5.37242C3.2989 4.65049 3.73723 3.99454 4.2898 3.44202V3.44202ZM8.4973 9.34952C8.94817 9.34952 9.38057 9.17041 9.69939 8.8516C10.0182 8.53279 10.1973 8.10039 10.1973 7.64952C10.1973 7.19865 10.0182 6.76625 9.69939 6.44744C9.38057 6.12863 8.94817 5.94952 8.4973 5.94952C8.04644 5.94952 7.61403 6.12863 7.29522 6.44744C6.97641 6.76625 6.7973 7.19865 6.7973 7.64952C6.7973 8.10039 6.97641 8.53279 7.29522 8.8516C7.61403 9.17041 8.04644 9.34952 8.4973 9.34952Z" fill="white"/>
</svg>
