<svg width="24" height="24" viewBox="0 0 24 24" fill="none" xmlns="http://www.w3.org/2000/svg">
<path d="M2.40625 7.06158L12.0026 11.8592L21.599 7.06158C21.5635 6.45011 21.2956 5.87537 20.85 5.45505C20.4045 5.03474 19.8151 4.80067 19.2026 4.80078H4.80265C4.19015 4.80067 3.60079 5.03474 3.15526 5.45505C2.70974 5.87537 2.44177 6.45011 2.40625 7.06158Z" fill="#D82B48"/>
<path d="M21.5984 9.74219L11.9984 14.5422L2.39844 9.74219V16.8006C2.39844 17.4371 2.65129 18.0476 3.10138 18.4976C3.55147 18.9477 4.16192 19.2006 4.79844 19.2006H19.1984C19.835 19.2006 20.4454 18.9477 20.8955 18.4976C21.3456 18.0476 21.5984 17.4371 21.5984 16.8006V9.74219Z" fill="#D82B48"/>
</svg>
