<svg width="24" height="24" viewBox="0 0 24 24" fill="none" xmlns="http://www.w3.org/2000/svg">
<path d="M20.7489 15.9532C18.9711 16.7573 16.9905 17.0006 15.0709 16.6507C13.1514 16.3008 11.384 15.3743 10.0043 13.9946C8.6246 12.6149 7.69807 10.8475 7.34816 8.92796C6.99824 7.0084 7.24156 5.02779 8.04568 3.25C6.63036 3.88961 5.39132 4.86303 4.43489 6.08675C3.47845 7.31047 2.83316 8.74795 2.55437 10.2759C2.27559 11.8038 2.37164 13.3765 2.83427 14.8592C3.29691 16.3418 4.11233 17.6901 5.21056 18.7883C6.3088 19.8866 7.65708 20.702 9.13972 21.1646C10.6224 21.6272 12.1951 21.7233 13.723 21.4445C15.2509 21.1657 16.6884 20.5204 17.9121 19.564C19.1358 18.6076 20.1093 17.3685 20.7489 15.9532Z" fill="#1E1E1E"/>
</svg>
