<svg width="24" height="24" viewBox="0 0 24 24" fill="none" xmlns="http://www.w3.org/2000/svg">
<path d="M21.5984 3.60162C21.5983 3.42415 21.5589 3.24891 21.4829 3.08854C21.4069 2.92816 21.2963 2.78663 21.159 2.67415C21.0217 2.56167 20.8612 2.48104 20.689 2.43806C20.5168 2.39508 20.3373 2.39084 20.1632 2.42562L8.16324 4.82562C7.89131 4.87997 7.64659 5.02683 7.4707 5.24122C7.29481 5.45561 7.19861 5.72431 7.19844 6.00162V16.9384C6.80504 16.8467 6.40237 16.8008 5.99844 16.8016C4.01004 16.8016 2.39844 17.8756 2.39844 19.2016C2.39844 20.5276 4.01004 21.6016 5.99844 21.6016C7.98684 21.6016 9.59844 20.5276 9.59844 19.2016V9.38562L19.1984 7.46562V14.5384C18.805 14.4468 18.4024 14.4009 17.9984 14.4016C16.01 14.4016 14.3984 15.4756 14.3984 16.8016C14.3984 18.1276 16.01 19.2016 17.9984 19.2016C19.9868 19.2016 21.5984 18.1276 21.5984 16.8016V3.60162Z" fill="#1E1E1E"/>
</svg>
