<svg width="32" height="32" viewBox="0 0 32 32" fill="none" xmlns="http://www.w3.org/2000/svg">
<path fill-rule="evenodd" clip-rule="evenodd" d="M26.1708 18.6162C25.0415 16.1322 25.0708 15.1976 25.1228 13.4989C25.1361 13.0976 25.1495 12.6616 25.1495 12.1616C25.1495 8.19223 22.3108 2.60156 16.0015 2.60156C9.69212 2.60156 6.85346 8.19223 6.85346 12.1616C6.85346 12.6602 6.86679 13.0976 6.88012 13.4989C6.93212 15.1976 6.96012 16.1322 5.81879 18.6496C5.33079 19.9082 5.38946 20.9949 5.99612 21.8802C7.45212 24.0109 11.6655 24.3042 16.0015 24.3042C20.3375 24.3042 24.5508 24.0109 26.0068 21.8802C26.6148 20.9949 26.6735 19.9082 26.1708 18.6162Z" fill="black"/>
<path fill-rule="evenodd" clip-rule="evenodd" d="M19.5978 25.6539C17.4232 25.8953 15.0658 25.894 12.3858 25.6513C11.9845 25.6193 11.5872 25.8313 11.4032 26.198C11.2178 26.566 11.2765 27.0073 11.5498 27.314C12.7498 28.6566 14.3285 29.3979 15.9952 29.3979H15.9978C17.6685 29.3979 19.2512 28.658 20.4538 27.314C20.7298 27.006 20.7872 26.558 20.5978 26.1886C20.4072 25.822 20.0152 25.6166 19.5978 25.6539Z" fill="black"/>
</svg>
