<svg width="24" height="24" viewBox="0 0 24 24" fill="none" xmlns="http://www.w3.org/2000/svg">
<path fill-rule="evenodd" clip-rule="evenodd" d="M11.9987 15C10.3447 15 8.99867 13.654 8.99867 12C8.99867 10.346 10.3447 9 11.9987 9C13.6527 9 14.9987 10.346 14.9987 12C14.9987 13.654 13.6527 15 11.9987 15ZM19.5127 12.914C19.1857 12.723 18.9897 12.382 18.9897 12C18.9897 11.618 19.1857 11.277 19.5137 11.087C20.9317 10.262 21.4187 8.43 20.6007 7.001C20.2017 6.307 19.5587 5.811 18.7887 5.604C18.0227 5.401 17.2227 5.507 16.5367 5.906C16.2127 6.096 15.8257 6.096 15.4997 5.907C15.1697 5.718 14.9727 5.375 14.9727 4.992C14.9727 3.343 13.6387 2 11.9987 2C10.3577 2 9.02367 3.343 9.02367 4.992C9.02367 5.376 8.82667 5.718 8.49667 5.908C8.17267 6.094 7.78567 6.096 7.46167 5.906C6.77367 5.507 5.97467 5.399 5.20667 5.605C4.43667 5.812 3.79467 6.308 3.39667 7.002C2.57867 8.431 3.06667 10.263 4.48467 11.086C4.81167 11.276 5.00667 11.618 5.00667 12C5.00667 12.382 4.81167 12.724 4.48467 12.913C3.06667 13.738 2.57867 15.571 3.39667 16.999C3.79467 17.692 4.43667 18.188 5.20567 18.395C5.97267 18.6 6.77367 18.494 7.46167 18.095C7.78467 17.905 8.17167 17.905 8.49667 18.092C8.82667 18.282 9.02367 18.624 9.02367 19.008C9.02367 20.657 10.3577 22 11.9987 22C13.6387 22 14.9727 20.657 14.9727 19.008C14.9727 18.625 15.1697 18.282 15.4997 18.093C15.8247 17.905 16.2117 17.905 16.5367 18.095C17.2237 18.494 18.0237 18.598 18.7887 18.396C19.5587 18.189 20.2017 17.693 20.6007 16.999C21.4187 15.571 20.9317 13.739 19.5127 12.914Z" fill="white"/>
</svg>
