<svg width="24" height="24" viewBox="0 0 24 24" fill="none" xmlns="http://www.w3.org/2000/svg">
<path fill-rule="evenodd" clip-rule="evenodd" d="M11.9984 2.39844C12.3167 2.39844 12.6219 2.52487 12.847 2.74991C13.072 2.97495 13.1984 3.28018 13.1984 3.59844V4.79844C13.1984 5.1167 13.072 5.42192 12.847 5.64697C12.6219 5.87201 12.3167 5.99844 11.9984 5.99844C11.6802 5.99844 11.375 5.87201 11.1499 5.64697C10.9249 5.42192 10.7984 5.1167 10.7984 4.79844V3.59844C10.7984 3.28018 10.9249 2.97495 11.1499 2.74991C11.375 2.52487 11.6802 2.39844 11.9984 2.39844ZM16.7984 11.9984C16.7984 13.2715 16.2927 14.4924 15.3926 15.3926C14.4924 16.2927 13.2715 16.7984 11.9984 16.7984C10.7254 16.7984 9.5045 16.2927 8.60432 15.3926C7.70415 14.4924 7.19844 13.2715 7.19844 11.9984C7.19844 10.7254 7.70415 9.5045 8.60432 8.60432C9.5045 7.70415 10.7254 7.19844 11.9984 7.19844C13.2715 7.19844 14.4924 7.70415 15.3926 8.60432C16.2927 9.5045 16.7984 10.7254 16.7984 11.9984ZM16.2416 17.9384L17.09 18.7868C17.3164 19.0054 17.6195 19.1264 17.9341 19.1236C18.2488 19.1209 18.5497 18.9947 18.7722 18.7722C18.9947 18.5497 19.1209 18.2488 19.1236 17.9341C19.1264 17.6195 19.0054 17.3164 18.7868 17.09L17.9384 16.2416C17.7121 16.023 17.409 15.9021 17.0944 15.9048C16.7797 15.9076 16.4787 16.0338 16.2563 16.2563C16.0338 16.4787 15.9076 16.7797 15.9048 17.0944C15.9021 17.409 16.023 17.7121 16.2416 17.9384ZM18.7856 5.21004C19.0106 5.43507 19.137 5.74024 19.137 6.05844C19.137 6.37663 19.0106 6.6818 18.7856 6.90684L17.9384 7.75524C17.8277 7.86985 17.6953 7.96127 17.5489 8.02416C17.4025 8.08705 17.2451 8.12015 17.0857 8.12154C16.9264 8.12292 16.7684 8.09256 16.6209 8.03222C16.4734 7.97189 16.3394 7.88278 16.2268 7.77011C16.1141 7.65744 16.025 7.52346 15.9647 7.37598C15.9043 7.22851 15.874 7.07049 15.8753 6.91116C15.8767 6.75182 15.9098 6.59436 15.9727 6.44795C16.0356 6.30155 16.127 6.16913 16.2416 6.05844L17.09 5.21004C17.3151 4.98507 17.6202 4.85869 17.9384 4.85869C18.2566 4.85869 18.5618 4.98507 18.7868 5.21004H18.7856ZM20.3984 13.1984C20.7167 13.1984 21.0219 13.072 21.247 12.847C21.472 12.6219 21.5984 12.3167 21.5984 11.9984C21.5984 11.6802 21.472 11.375 21.247 11.1499C21.0219 10.9249 20.7167 10.7984 20.3984 10.7984H19.1984C18.8802 10.7984 18.575 10.9249 18.3499 11.1499C18.1249 11.375 17.9984 11.6802 17.9984 11.9984C17.9984 12.3167 18.1249 12.6219 18.3499 12.847C18.575 13.072 18.8802 13.1984 19.1984 13.1984H20.3984ZM11.9984 17.9984C12.3167 17.9984 12.6219 18.1249 12.847 18.3499C13.072 18.575 13.1984 18.8802 13.1984 19.1984V20.3984C13.1984 20.7167 13.072 21.0219 12.847 21.247C12.6219 21.472 12.3167 21.5984 11.9984 21.5984C11.6802 21.5984 11.375 21.472 11.1499 21.247C10.9249 21.0219 10.7984 20.7167 10.7984 20.3984V19.1984C10.7984 18.8802 10.9249 18.575 11.1499 18.3499C11.375 18.1249 11.6802 17.9984 11.9984 17.9984ZM6.05844 7.75524C6.16985 7.86673 6.30213 7.95519 6.44773 8.01556C6.59333 8.07592 6.7494 8.10703 6.90701 8.10708C7.06463 8.10714 7.22072 8.07615 7.36636 8.01588C7.512 7.95561 7.64435 7.86725 7.75584 7.75584C7.86733 7.64442 7.95579 7.51214 8.01616 7.36654C8.07652 7.22094 8.10763 7.06488 8.10768 6.90726C8.10774 6.74964 8.07675 6.59356 8.01648 6.44792C7.95621 6.30227 7.86785 6.16993 7.75644 6.05844L6.90684 5.21004C6.68051 4.99145 6.37739 4.87049 6.06276 4.87323C5.74812 4.87596 5.44714 5.00217 5.22466 5.22466C5.00217 5.44714 4.87596 5.74812 4.87323 6.06276C4.87049 6.37739 4.99145 6.68051 5.21004 6.90684L6.05844 7.75524ZM7.75524 17.9384L6.90684 18.7868C6.68051 19.0054 6.37739 19.1264 6.06276 19.1236C5.74812 19.1209 5.44714 18.9947 5.22466 18.7722C5.00217 18.5497 4.87596 18.2488 4.87323 17.9341C4.87049 17.6195 4.99145 17.3164 5.21004 17.09L6.05844 16.2416C6.28476 16.023 6.58788 15.9021 6.90252 15.9048C7.21716 15.9076 7.51813 16.0338 7.74062 16.2563C7.96311 16.4787 8.08931 16.7797 8.09205 17.0944C8.09478 17.409 7.97383 17.7121 7.75524 17.9384ZM4.79844 13.1984C5.1167 13.1984 5.42192 13.072 5.64697 12.847C5.87201 12.6219 5.99844 12.3167 5.99844 11.9984C5.99844 11.6802 5.87201 11.375 5.64697 11.1499C5.42192 10.9249 5.1167 10.7984 4.79844 10.7984H3.59844C3.28018 10.7984 2.97495 10.9249 2.74991 11.1499C2.52487 11.375 2.39844 11.6802 2.39844 11.9984C2.39844 12.3167 2.52487 12.6219 2.74991 12.847C2.97495 13.072 3.28018 13.1984 3.59844 13.1984H4.79844Z" fill="#1E1E1E"/>
</svg>
