<svg width="18" height="18" viewBox="0 0 18 18" fill="none" xmlns="http://www.w3.org/2000/svg">
<path d="M2.70312 3.59922C2.70312 3.36052 2.79795 3.13161 2.96673 2.96282C3.13551 2.79404 3.36443 2.69922 3.60313 2.69922H14.4031C14.6418 2.69922 14.8707 2.79404 15.0395 2.96282C15.2083 3.13161 15.3031 3.36052 15.3031 3.59922V5.39922C15.3031 5.63791 15.2083 5.86683 15.0395 6.03561C14.8707 6.2044 14.6418 6.29922 14.4031 6.29922H3.60313C3.36443 6.29922 3.13551 6.2044 2.96673 6.03561C2.79795 5.86683 2.70313 5.63791 2.70312 5.39922V3.59922ZM2.70312 8.99922C2.70312 8.76052 2.79795 8.53161 2.96673 8.36282C3.13551 8.19404 3.36443 8.09922 3.60313 8.09922H9.00313C9.24182 8.09922 9.47074 8.19404 9.63952 8.36282C9.8083 8.53161 9.90313 8.76052 9.90313 8.99922V14.3992C9.90313 14.6379 9.8083 14.8668 9.63952 15.0356C9.47074 15.2044 9.24182 15.2992 9.00313 15.2992H3.60313C3.36443 15.2992 3.13551 15.2044 2.96673 15.0356C2.79795 14.8668 2.70313 14.6379 2.70312 14.3992V8.99922ZM12.6031 8.09922C12.3644 8.09922 12.1355 8.19404 11.9667 8.36282C11.7979 8.53161 11.7031 8.76052 11.7031 8.99922V14.3992C11.7031 14.6379 11.7979 14.8668 11.9667 15.0356C12.1355 15.2044 12.3644 15.2992 12.6031 15.2992H14.4031C14.6418 15.2992 14.8707 15.2044 15.0395 15.0356C15.2083 14.8668 15.3031 14.6379 15.3031 14.3992V8.99922C15.3031 8.76052 15.2083 8.53161 15.0395 8.36282C14.8707 8.19404 14.6418 8.09922 14.4031 8.09922H12.6031Z" fill="white"/>
</svg>
