<svg width="24" height="24" viewBox="0 0 24 24" fill="none" xmlns="http://www.w3.org/2000/svg">
<path fill-rule="evenodd" clip-rule="evenodd" d="M21.5984 11.9984C21.5984 14.5445 20.587 16.9863 18.7867 18.7867C16.9863 20.587 14.5445 21.5984 11.9984 21.5984C9.45236 21.5984 7.01056 20.587 5.21021 18.7867C3.40986 16.9863 2.39844 14.5445 2.39844 11.9984C2.39844 9.45236 3.40986 7.01056 5.21021 5.21021C7.01056 3.40986 9.45236 2.39844 11.9984 2.39844C14.5445 2.39844 16.9863 3.40986 18.7867 5.21021C20.587 7.01056 21.5984 9.45236 21.5984 11.9984ZM14.3984 8.39844C14.3984 9.03496 14.1456 9.64541 13.6955 10.0955C13.2454 10.5456 12.635 10.7984 11.9984 10.7984C11.3619 10.7984 10.7515 10.5456 10.3014 10.0955C9.85129 9.64541 9.59844 9.03496 9.59844 8.39844C9.59844 7.76192 9.85129 7.15147 10.3014 6.70138C10.7515 6.25129 11.3619 5.99844 11.9984 5.99844C12.635 5.99844 13.2454 6.25129 13.6955 6.70138C14.1456 7.15147 14.3984 7.76192 14.3984 8.39844ZM11.9984 13.1984C10.8496 13.1982 9.72477 13.5278 8.75774 14.1481C7.7907 14.7684 7.02209 15.6533 6.54324 16.6976C7.21845 17.4832 8.05556 18.1134 8.99717 18.545C9.93878 18.9767 10.9626 19.1996 11.9984 19.1984C13.0343 19.1996 14.0581 18.9767 14.9997 18.545C15.9413 18.1134 16.7784 17.4832 17.4536 16.6976C16.9748 15.6533 16.2062 14.7684 15.2391 14.1481C14.2721 13.5278 13.1473 13.1982 11.9984 13.1984Z" fill="white"/>
</svg>
