<svg width="24" height="24" viewBox="0 0 24 24" fill="none" xmlns="http://www.w3.org/2000/svg">
<path fill-rule="evenodd" clip-rule="evenodd" d="M15.1796 12.8712C14.9916 12.7882 14.7716 12.8292 14.6256 12.9752L10.1166 17.4852C10.0116 17.5912 9.95861 17.7382 9.97261 17.8872C9.98661 18.0352 10.0666 18.1692 10.1896 18.2532C10.7346 18.6212 11.4646 19.0282 12.2976 19.0282C12.7326 19.0282 13.1966 18.9172 13.6766 18.6312C14.8596 17.7902 15.3646 16.3092 15.4786 13.3492C15.4876 13.1422 15.3676 12.9532 15.1796 12.8712Z" fill="black"/>
<path fill-rule="evenodd" clip-rule="evenodd" d="M20.2157 3.79788C19.9227 3.50488 19.4477 3.50488 19.1547 3.79788L15.1957 7.75787C14.9257 6.46187 14.4477 5.64687 13.6407 5.07788C11.9567 4.08388 10.4117 5.26988 9.28369 6.13488C8.82269 6.48888 8.38769 6.82288 8.05969 6.93088C7.61069 7.07788 7.22169 7.12488 6.84569 7.17088C6.18669 7.24988 5.50469 7.33288 4.75969 7.96588C3.55169 8.99088 3.56369 10.6579 3.57169 11.8669C3.56369 13.0839 3.55169 14.7509 4.76169 15.7789C5.35669 16.2799 5.90969 16.4299 6.44369 16.5099L3.81069 19.1429C3.51769 19.4359 3.51769 19.9099 3.81069 20.2029C3.95769 20.3499 4.14969 20.4229 4.34069 20.4229C4.53269 20.4229 4.72469 20.3499 4.87169 20.2029L20.2157 4.85888C20.5087 4.56588 20.5087 4.09088 20.2157 3.79788Z" fill="black"/>
</svg>
