<svg width="24" height="24" viewBox="0 0 24 24" fill="none" xmlns="http://www.w3.org/2000/svg">
<path fill-rule="evenodd" clip-rule="evenodd" d="M19.9478 5.40726C19.7178 5.06326 19.2498 4.97026 18.9068 5.20226C18.5628 5.43226 18.4708 5.89826 18.7018 6.24326C21.0128 9.69026 21.0128 14.3203 18.7018 17.7643C18.4708 18.1083 18.5628 18.5743 18.9068 18.8053C19.0348 18.8913 19.1798 18.9323 19.3238 18.9323C19.5658 18.9323 19.8028 18.8163 19.9478 18.6003C22.5938 14.6573 22.5938 9.35526 19.9478 5.40726Z" fill="black"/>
<path fill-rule="evenodd" clip-rule="evenodd" d="M16.5157 7.61133C16.1527 7.81033 16.0207 8.26733 16.2217 8.63033C17.3717 10.7153 17.3717 13.3003 16.2217 15.3773C16.0207 15.7393 16.1527 16.1953 16.5147 16.3963C16.6297 16.4603 16.7547 16.4903 16.8777 16.4903C17.1407 16.4903 17.3967 16.3503 17.5347 16.1033C18.9317 13.5803 18.9327 10.4383 17.5347 7.90533C17.3337 7.54233 16.8777 7.41133 16.5157 7.61133Z" fill="black"/>
<path fill-rule="evenodd" clip-rule="evenodd" d="M12.2945 5.11726C10.5885 4.10226 9.01947 5.30726 7.87348 6.18426C7.40348 6.54426 6.95948 6.88426 6.62248 6.99526C6.16447 7.14526 5.76947 7.19326 5.38648 7.23926C4.71948 7.31826 4.03048 7.40026 3.27548 8.04126C2.06648 9.06826 2.06848 10.6963 2.07048 12.0043C2.06848 13.3113 2.06648 14.9393 3.27648 15.9673C4.03048 16.6073 4.71948 16.6893 5.38648 16.7683C5.76947 16.8143 6.16447 16.8623 6.62248 17.0133C6.95948 17.1243 7.40248 17.4643 7.87248 17.8233C8.70347 18.4603 9.75747 19.2673 10.9395 19.2673C11.3865 19.2673 11.8515 19.1523 12.3295 18.8683C13.6955 17.8973 14.1795 16.1003 14.1795 12.0043C14.1795 7.85326 13.7125 6.12126 12.2945 5.11726Z" fill="black"/>
</svg>
